<svg width="879" height="257" viewBox="0 0 879 257" fill="none" xmlns="http://www.w3.org/2000/svg">
<path d="M0.00878906 183.78H9.77879L10.7188 192.89C14.6588 185.09 20.2988 182.56 26.7788 182.56C27.7188 182.56 29.8788 182.75 31.5688 183.31V195.33C28.1888 194.39 25.2788 194.39 24.2388 194.39C16.1588 194.39 11.4688 200.68 11.4688 210.08V236.19H0.00878906V183.78Z" fill="#FFC552"/>
<path d="M35.8888 209.99C35.8888 194.12 45.4688 182.66 61.9988 182.66C78.5288 182.66 86.8888 193.74 86.8888 209.99C86.8888 211.87 86.6988 213.28 86.4188 215.06H48.2788C49.1188 222.95 56.0788 226.99 64.1488 226.99C70.9088 226.99 75.0488 225.67 80.4888 222.76L84.8088 231.87C79.0788 235.44 72.5988 237.32 63.2988 237.32C45.6388 237.32 35.8688 226.24 35.8688 209.99H35.8888ZM75.1488 205.86C74.8688 197.69 70.7388 192.99 61.9988 192.99C53.7288 192.99 48.5688 197.87 48.5688 205.86H75.1488Z" fill="#FFC552"/>
<path d="M99.2888 196.46H91.4888V189.32L99.2888 186.5V184.72C99.2888 174.58 104.929 164.43 120.709 164.43C125.309 164.43 129.069 165.46 131.889 166.59V175.98C128.509 174.85 125.879 174.29 121.649 174.29C114.419 174.29 110.749 177.48 110.749 183.78V185.75H126.999V196.46H110.749V254.98H99.2888V196.46Z" fill="#FFC552"/>
<path d="M132.629 209.99C132.629 194.12 142.209 182.66 158.739 182.66C175.269 182.66 183.629 193.74 183.629 209.99C183.629 211.87 183.439 213.28 183.159 215.06H145.019C145.859 222.95 152.819 226.99 160.889 226.99C167.649 226.99 171.789 225.67 177.229 222.76L181.549 231.87C175.819 235.44 169.339 237.32 160.039 237.32C142.379 237.32 132.609 226.24 132.609 209.99H132.629ZM171.889 205.86C171.609 197.69 167.479 192.99 158.739 192.99C150.469 192.99 145.309 197.87 145.309 205.86H171.889Z" fill="#FFC552"/>
<path d="M193.019 177.3V165.56H205.889V177.3H193.019ZM193.769 236.2V183.79H205.229V236.2H193.769Z" fill="#FFC552"/>
<path d="M251.819 246.81C251.819 253.2 246.559 256.11 240.079 256.11C237.539 256.11 234.539 255.36 232.749 254.23V247.94C234.349 248.79 236.509 249.44 238.759 249.44C242.419 249.44 244.109 248.5 244.109 246.34C244.109 244.56 242.229 243.52 239.319 243.52C237.539 243.52 236.409 243.71 234.719 244.08L237.159 237.13C222.689 235.44 215.369 224.54 215.369 209.98C215.369 194.11 224.479 182.65 242.049 182.65C250.129 182.65 256.519 184.72 261.489 188.66L256.039 197.77C251.059 194.67 247.869 193.73 242.979 193.73C231.709 193.73 227.389 200.4 227.389 209.98C227.389 219.56 231.239 226.23 242.979 226.23C247.959 226.23 251.619 225.2 257.259 221.91L262.429 231.3C256.889 234.87 251.349 236.84 244.109 237.22L243.259 239.47C243.639 239.38 243.919 239.38 244.859 239.38C248.049 239.38 251.809 241.26 251.809 246.8L251.819 246.81Z" fill="#FFC552"/>
<path d="M266.659 209.99C266.659 193.74 275.679 182.66 294.459 182.66C313.239 182.66 322.259 193.74 322.259 209.99C322.259 226.24 313.239 237.32 294.459 237.32C275.679 237.32 266.659 226.24 266.659 209.99ZM275.299 171.85C277.649 167.53 281.879 163.4 288.449 163.4C294.459 163.4 298.309 167.06 302.819 167.06C305.539 167.06 306.949 165.46 307.989 163.87L313.529 167.63C311.179 172.05 307.049 176.08 300.569 176.08C292.869 176.08 290.239 172.42 286.009 172.42C283.289 172.42 281.879 173.92 280.839 175.71L275.299 171.86V171.85ZM310.239 209.99C310.239 200.13 305.919 193.74 294.459 193.74C282.999 193.74 278.679 200.13 278.679 209.99C278.679 219.85 282.999 226.24 294.459 226.24C305.919 226.24 310.239 219.85 310.239 209.99Z" fill="#FFC552"/>
<path d="M329.399 209.99C329.399 194.12 338.979 182.66 355.509 182.66C372.039 182.66 380.399 193.74 380.399 209.99C380.399 211.87 380.209 213.28 379.929 215.06H341.789C342.629 222.95 349.589 226.99 357.659 226.99C364.419 226.99 368.559 225.67 373.999 222.76L378.319 231.87C372.589 235.44 366.109 237.32 356.809 237.32C339.149 237.32 329.379 226.24 329.379 209.99H329.399ZM368.659 205.86C368.379 197.69 364.249 192.99 355.509 192.99C347.239 192.99 342.079 197.87 342.079 205.86H368.659Z" fill="#FFC552"/>
<path d="M387.349 231.78L392.699 222.1C397.769 225.67 403.219 226.23 407.919 226.23C414.119 226.23 417.499 224.07 417.499 221.16C417.499 217.4 411.859 215.99 407.169 214.96C397.309 212.71 388.949 209.04 388.949 198.15C388.949 188.76 395.899 182.65 408.209 182.65C413.379 182.65 420.229 183.4 426.899 187.16L422.769 196.46C417.979 194.49 411.869 193.74 408.209 193.74C403.039 193.74 400.599 195.43 400.599 197.97C400.599 201.35 404.729 202.48 409.809 203.7C420.519 206.33 429.159 209.99 429.159 220.89C429.159 230.75 421.359 237.33 407.929 237.33C401.169 237.33 393.559 236.58 387.359 231.79L387.349 231.78Z" fill="#FFC552"/>
<path d="M328.719 108.1V126.5C326.359 129.37 320.109 132.41 312.519 132.41C304.929 132.41 294.119 128.87 290.919 115.87C285.519 124.48 275.899 132.41 260.709 132.41C234.889 132.41 217.329 115.87 217.329 84.1399C217.329 52.4099 237.079 34.1799 264.079 34.1799C275.389 34.1799 284.839 37.3899 292.439 42.9599L294.799 36.2099H310.669V102.71C310.669 110.31 313.369 112.5 319.279 112.5C321.979 112.5 324.849 111.49 328.729 108.11L328.719 108.1ZM290.069 83.1199V60.4999C283.659 55.6099 275.889 53.4099 265.759 53.4099C247.189 53.4099 238.919 64.7199 238.919 84.1299C238.919 102.53 247.359 112.49 264.069 112.49C280.779 112.49 290.059 100.34 290.059 83.1199H290.069Z" fill="#FFC552"/>
<path d="M341.379 36.2H359.269L360.959 52.57C367.879 39.57 378.179 34 393.199 34C414.799 34 429.149 48.01 429.149 76.2V130.38H408.559V76.2C408.559 61.35 400.799 54.09 387.119 54.09C370.579 54.09 361.969 63.71 361.969 82.78V130.38H341.379V36.2Z" fill="#FFC552"/>
<path d="M502.239 103.71C534.139 103.71 543.929 116.88 543.929 133.75C543.929 152.65 529.249 166.16 495.829 166.16C462.409 166.16 448.229 152.66 448.229 133.75C448.229 124.64 451.939 118.05 456.499 113.66C452.789 109.95 450.589 105.05 450.589 98.4699C450.589 89.8599 455.989 84.1199 461.219 80.9199C457.169 76.0199 455.139 70.1199 455.139 63.1999C455.139 45.9799 467.629 34.1699 495.649 34.1699C500.209 34.1699 504.259 34.5099 507.969 35.0099C509.149 22.5199 523.329 16.4399 537.339 16.4399V34.6699C531.769 34.6699 527.039 36.0199 524.179 40.5799C532.449 45.8099 536.329 53.7399 536.329 63.1999C536.329 80.7499 523.669 92.5699 495.819 92.5699C486.869 92.5699 479.449 91.3899 473.539 89.1899C471.679 90.8799 470.669 93.0699 470.669 95.4399C470.669 100.5 474.549 103.71 485.519 103.71H502.229H502.239ZM524.519 133.59C524.519 126.67 519.789 121.94 502.749 121.94H484.519C480.129 121.94 475.569 121.6 471.189 120.76C467.979 124.98 467.649 129.37 467.649 133.59C467.649 142.54 475.409 149.96 495.839 149.96C516.269 149.96 524.529 142.53 524.529 133.59H524.519ZM475.229 63.2099C475.229 70.8099 480.799 76.2099 495.819 76.2099C510.839 76.2099 516.239 70.8099 516.239 63.2099C516.239 55.6099 511.179 50.5499 495.819 50.5499C480.459 50.5499 475.229 55.7799 475.229 63.2099Z" fill="#FFC552"/>
<path d="M557.769 24.5499V3.44995H580.889V24.5499H557.769ZM559.119 130.38V36.2H579.709V130.38H559.119Z" fill="#FFC552"/>
<path d="M709.339 108.1V126.5C706.979 129.37 700.729 132.41 693.139 132.41C685.549 132.41 674.739 128.87 671.539 115.87C666.139 124.48 656.519 132.41 641.329 132.41C615.509 132.41 597.949 115.87 597.949 84.1399C597.949 52.4099 617.699 34.1799 644.699 34.1799C656.009 34.1799 665.459 37.3899 673.059 42.9599L675.419 36.2099H691.289V102.71C691.289 110.31 693.989 112.5 699.899 112.5C702.599 112.5 705.469 111.49 709.349 108.11L709.339 108.1ZM670.689 83.1199V60.4999C664.279 55.6099 656.509 53.4099 646.379 53.4099C627.809 53.4099 619.539 64.7199 619.539 84.1299C619.539 102.53 627.979 112.49 644.689 112.49C661.399 112.49 670.679 100.34 670.679 83.1199H670.689Z" fill="#FFC552"/>
<path d="M721.999 36.2H739.549L741.239 52.57C748.329 38.56 758.459 34 770.099 34C771.789 34 775.669 34.34 778.709 35.35V56.95C772.629 55.26 767.399 55.26 765.549 55.26C751.029 55.26 742.589 66.57 742.589 83.45V130.37H721.999V36.19V36.2Z" fill="#FFC552"/>
<path d="M786.479 83.2899C786.479 54.7699 803.699 34.1699 833.399 34.1699C863.099 34.1699 878.129 54.0899 878.129 83.2899C878.129 86.6699 877.789 89.1999 877.289 92.4099H808.759C810.279 106.59 822.769 113.85 837.289 113.85C849.439 113.85 856.869 111.49 866.659 106.25L874.419 122.62C864.119 129.03 852.479 132.41 835.769 132.41C804.039 132.41 786.479 112.49 786.479 83.2899ZM857.039 75.8599C856.529 61.1799 849.109 52.7399 833.409 52.7399C818.559 52.7399 809.269 61.5199 809.269 75.8599H857.039Z" fill="#FFC552"/>
<path d="M199.429 132.47H180.179C180.179 132.01 179.249 19.26 139.579 19.26C121.479 19.26 113.829 26.22 105.939 33.88C107.099 35.27 131.459 63.34 131.459 102.08C131.459 127.6 116.149 132.47 108.489 132.47C95.4989 132.47 67.6589 123.89 67.6589 80.74C67.6589 64.5 72.2989 48.03 80.8789 34.57C72.2989 26.45 60.6989 19.49 46.7789 19.49C13.3689 19.49 14.5289 76.33 28.9189 132.23H9.19889C-9.82111 58 -0.311104 0.229996 46.7789 0.229996C63.2489 0.229996 79.0289 6.96 92.9489 19.72C103.619 9.51 117.999 0 138.649 0C206.159 0 199.429 131.07 199.429 132.46V132.47ZM94.1089 50.35C89.4689 59.63 86.9189 70.07 86.9189 80.74C86.9189 95.59 93.8789 113.22 106.639 113.22C110.579 113.22 112.209 108.35 112.209 102.09C112.209 87.24 105.019 66.6 94.1189 50.36L94.1089 50.35Z" fill="#FFC552"/>
</svg>
