<svg width="879" height="167" viewBox="0 0 879 167" fill="none" xmlns="http://www.w3.org/2000/svg">
<path d="M328.719 108.11V126.51C326.359 129.38 320.109 132.42 312.519 132.42C304.929 132.42 294.119 128.88 290.919 115.88C285.519 124.49 275.899 132.42 260.709 132.42C234.889 132.42 217.329 115.88 217.329 84.15C217.329 52.42 237.079 34.19 264.079 34.19C275.389 34.19 284.839 37.4 292.439 42.97L294.799 36.22H310.669V102.72C310.669 110.32 313.369 112.51 319.279 112.51C321.979 112.51 324.849 111.5 328.729 108.12L328.719 108.11ZM290.069 83.13V60.51C283.659 55.62 275.889 53.42 265.759 53.42C247.189 53.42 238.919 64.73 238.919 84.14C238.919 102.54 247.359 112.5 264.069 112.5C280.779 112.5 290.059 100.35 290.059 83.13H290.069Z" fill="#F7F7D4"/>
<path d="M341.379 36.2H359.269L360.959 52.57C367.879 39.57 378.179 34 393.199 34C414.799 34 429.149 48.01 429.149 76.2V130.38H408.559V76.2C408.559 61.35 400.799 54.09 387.119 54.09C370.579 54.09 361.969 63.71 361.969 82.78V130.38H341.379V36.2Z" fill="#F7F7D4"/>
<path d="M502.239 103.72C534.139 103.72 543.929 116.89 543.929 133.76C543.929 152.66 529.249 166.17 495.829 166.17C462.409 166.17 448.229 152.67 448.229 133.76C448.229 124.65 451.939 118.06 456.499 113.67C452.789 109.96 450.589 105.06 450.589 98.48C450.589 89.87 455.989 84.13 461.219 80.93C457.169 76.03 455.139 70.13 455.139 63.21C455.139 45.99 467.629 34.18 495.649 34.18C500.209 34.18 504.259 34.52 507.969 35.02C509.149 22.53 523.329 16.45 537.339 16.45V34.68C531.769 34.68 527.039 36.03 524.179 40.59C532.449 45.82 536.329 53.75 536.329 63.21C536.329 80.76 523.669 92.58 495.819 92.58C486.869 92.58 479.449 91.4 473.539 89.2C471.679 90.89 470.669 93.08 470.669 95.45C470.669 100.51 474.549 103.72 485.519 103.72H502.229H502.239ZM524.519 133.59C524.519 126.67 519.789 121.94 502.749 121.94H484.519C480.129 121.94 475.569 121.6 471.189 120.76C467.979 124.98 467.649 129.37 467.649 133.59C467.649 142.54 475.409 149.96 495.839 149.96C516.269 149.96 524.529 142.53 524.529 133.59H524.519ZM475.229 63.21C475.229 70.81 480.799 76.21 495.819 76.21C510.839 76.21 516.239 70.81 516.239 63.21C516.239 55.61 511.179 50.55 495.819 50.55C480.459 50.55 475.229 55.78 475.229 63.21Z" fill="#F7F7D4"/>
<path d="M557.769 24.56V3.45999H580.889V24.56H557.769ZM559.119 130.39V36.21H579.709V130.39H559.119Z" fill="#F7F7D4"/>
<path d="M709.339 108.11V126.51C706.979 129.38 700.729 132.42 693.139 132.42C685.549 132.42 674.739 128.88 671.539 115.88C666.139 124.49 656.519 132.42 641.329 132.42C615.509 132.42 597.949 115.88 597.949 84.15C597.949 52.42 617.699 34.19 644.699 34.19C656.009 34.19 665.459 37.4 673.059 42.97L675.419 36.22H691.289V102.72C691.289 110.32 693.989 112.51 699.899 112.51C702.599 112.51 705.469 111.5 709.349 108.12L709.339 108.11ZM670.689 83.13V60.51C664.279 55.62 656.509 53.42 646.379 53.42C627.809 53.42 619.539 64.73 619.539 84.14C619.539 102.54 627.979 112.5 644.689 112.5C661.399 112.5 670.679 100.35 670.679 83.13H670.689Z" fill="#F7F7D4"/>
<path d="M721.999 36.2H739.549L741.239 52.57C748.329 38.56 758.459 34 770.099 34C771.789 34 775.669 34.34 778.709 35.35V56.95C772.629 55.26 767.399 55.26 765.549 55.26C751.029 55.26 742.589 66.57 742.589 83.45V130.37H721.999V36.19V36.2Z" fill="#F7F7D4"/>
<path d="M786.479 83.29C786.479 54.77 803.699 34.17 833.399 34.17C863.099 34.17 878.129 54.09 878.129 83.29C878.129 86.67 877.789 89.2 877.289 92.41H808.759C810.279 106.59 822.769 113.85 837.289 113.85C849.439 113.85 856.869 111.49 866.659 106.25L874.419 122.62C864.119 129.03 852.479 132.41 835.769 132.41C804.039 132.41 786.479 112.49 786.479 83.29ZM857.039 75.87C856.529 61.19 849.109 52.75 833.409 52.75C818.559 52.75 809.269 61.53 809.269 75.87H857.039Z" fill="#F7F7D4"/>
<path d="M199.429 132.47H180.179C180.179 132.01 179.249 19.26 139.579 19.26C121.479 19.26 113.829 26.22 105.939 33.88C107.099 35.27 131.459 63.34 131.459 102.08C131.459 127.6 116.149 132.47 108.489 132.47C95.4989 132.47 67.6589 123.89 67.6589 80.74C67.6589 64.5 72.2989 48.03 80.8789 34.57C72.2989 26.45 60.6989 19.49 46.7789 19.49C13.3689 19.49 14.5289 76.33 28.9189 132.23H9.19889C-9.82111 58 -0.311104 0.229996 46.7789 0.229996C63.2489 0.229996 79.0289 6.95999 92.9489 19.72C103.619 9.50999 117.999 0 138.649 0C206.159 0 199.429 131.07 199.429 132.46V132.47ZM94.1089 50.35C89.4689 59.63 86.9189 70.07 86.9189 80.74C86.9189 95.59 93.8789 113.22 106.639 113.22C110.579 113.22 112.209 108.35 112.209 102.09C112.209 87.24 105.019 66.6 94.1189 50.36L94.1089 50.35Z" fill="#F7F7D4"/>
</svg>
